<svg xmlns="http://www.w3.org/2000/svg" xmlns:xlink="http://www.w3.org/1999/xlink" width="80" height="80" viewBox="0 0 80 80">
  <defs>
    <linearGradient id="roomsfy-home-logo04-b" x1="50%" x2="50%" y1="19.582%" y2="144.439%">
      <stop offset="0%" stop-color="#EC5D57"/>
      <stop offset="100%" stop-color="#E14039"/>
    </linearGradient>
    <rect id="roomsfy-home-logo04-a" width="80" height="80" x="0" y="0" rx="16"/>
  </defs>
  <g fill="none" fill-rule="evenodd">
    <mask id="roomsfy-home-logo04-c" fill="#fff">
      <use xlink:href="#roomsfy-home-logo04-a"/>
    </mask>
    <use fill="url(#roomsfy-home-logo04-b)" fill-rule="nonzero" xlink:href="#roomsfy-home-logo04-a"/>
    <path fill="#FFF" fill-rule="nonzero" d="M36.4908884,61.9967078 L36.4908884,40.9078351 L44.5091116,40.9078351 L44.5091116,53.4518518 L62.5501139,53.4518518 L62.5501139,38.2802656 L65.118451,40.4348726 L68,38.0175087 L41.9407745,16.1561306 L40.5,15 L39.0592255,16.1561306 L13,38.0175087 L15.881549,40.4348726 L18.4498861,38.2802656 L18.4498861,61.9967078 L36.4908884,61.9967078 Z M32.2204301,62 L21.8709677,62 L21.8709677,34.9383064 L40.5,19.5776014 L59.1290323,34.9383064 L59.1290323,53.455144 L48.7795699,53.455144 L48.7795699,37.6050955 L32.2204301,37.6050955 L32.2204301,62 Z" mask="url(#roomsfy-home-logo04-c)"/>
  </g>
</svg>
